<svg width="24" height="24" viewBox="0 0 24 24" fill="none" xmlns="http://www.w3.org/2000/svg">
<path d="M8 1C8.55228 1 9 1.44772 9 2C9 2.55228 9.44772 3 10 3H14C14.5523 3 15 2.55228 15 2C15 1.44772 15.4477 1 16 1C16.5523 1 17 1.44772 17 2C17 2.55228 17.4477 3 18 3H21C21.5523 3 22 3.44772 22 4V20C22 20.5523 21.5523 21 21 21H3C2.44772 21 2 20.5523 2 20V4C2 3.44772 2.44772 3 3 3H6C6.55228 3 7 2.55228 7 2C7 1.44772 7.44772 1 8 1ZM20 12C20 11.4477 19.5523 11 19 11H5C4.44772 11 4 11.4477 4 12V18C4 18.5523 4.44772 19 5 19H19C19.5523 19 20 18.5523 20 18V12ZM7 6C7 5.44772 6.55228 5 6 5H5C4.44772 5 4 5.44772 4 6V8C4 8.55228 4.44772 9 5 9H19C19.5523 9 20 8.55228 20 8V6C20 5.44772 19.5523 5 19 5H18C17.4477 5 17 5.44772 17 6C17 6.55228 16.5523 7 16 7C15.4477 7 15 6.55228 15 6C15 5.44772 14.5523 5 14 5H10C9.44772 5 9 5.44772 9 6C9 6.55228 8.55228 7 8 7C7.44772 7 7 6.55228 7 6Z" fill="#1A1A1A" fill-opacity="0.4"/>
</svg>
