<?xml version="1.0" standalone="no"?>
<!DOCTYPE svg PUBLIC "-//W3C//DTD SVG 20010904//EN"
 "http://www.w3.org/TR/2001/REC-SVG-20010904/DTD/svg10.dtd">
<svg version="1.0" xmlns="http://www.w3.org/2000/svg"
 width="200.000000pt" height="200.000000pt" viewBox="0 0 200.000000 200.000000"
 preserveAspectRatio="xMidYMid meet">

<g transform="translate(0.000000,200.000000) scale(0.100000,-0.100000)"
fill="#000000" stroke="none">
<path d="M920 1627 c-74 -25 -158 -88 -225 -168 -39 -47 -60 -118 -60 -210 0
-69 -3 -89 -18 -103 -14 -15 -17 -27 -11 -65 9 -63 32 -121 60 -152 13 -14 24
-32 24 -40 1 -44 48 -144 84 -178 22 -20 26 -33 26 -77 l0 -53 -47 -21 c-27
-12 -77 -33 -113 -46 -36 -14 -81 -32 -100 -39 -19 -8 -69 -24 -110 -36 -117
-34 -120 -37 -60 -93 57 -51 171 -129 240 -163 59 -29 179 -65 191 -57 6 3 17
0 25 -7 10 -8 56 -12 137 -13 144 -1 248 11 226 26 -10 7 -7 8 11 4 29 -6 193
51 184 65 -3 5 2 6 10 3 9 -3 16 -2 16 4 0 6 14 15 31 21 53 18 170 116 163
136 -3 7 -1 16 5 20 7 4 8 -1 4 -12 -4 -12 4 -9 26 12 l32 29 -108 37 c-59 19
-153 54 -208 77 -55 23 -106 42 -113 42 -7 0 -20 7 -28 15 -9 8 -12 15 -7 15
4 0 8 21 8 48 1 37 9 58 38 102 20 30 37 62 37 71 0 33 21 75 43 84 14 6 32
34 49 75 30 74 36 135 13 147 -12 7 -13 19 -5 68 26 157 -2 267 -77 305 -15 8
-47 33 -69 55 -23 22 -64 48 -90 58 -61 23 -187 30 -234 14z"/>
</g>
</svg>
