<svg width="193" height="64" viewBox="0 0 193 64" fill="none" xmlns="http://www.w3.org/2000/svg">
<path d="M33.5898 22.9019L46.0211 14.3014V31.5293L33.5898 22.9019Z" fill="#0B1A3C"/>
<path d="M42.0215 28.6721H52.7517V44.1213H22.757L33.9982 44.1095H22.75V63.9995H33.9982V55.3694H63.9993V17.424H42.0215V28.5733" fill="#0B1A3C"/>
<path d="M0 0V64H11.2481V37.9535H25.8288V26.7054H11.2481V11.2481H64V0H0Z" fill="#87C9EA"/>
<path d="M35.1813 32.5289L22.75 41.1294V23.9015L35.1813 32.5289Z" fill="#87C9EA"/>
<path d="M80 62H85.9343V56.0425H88.9017C94.1937 56.0425 98.0788 53.4514 98.0788 48.5066V48.4468C98.0788 43.8301 94.5916 41.1494 89.2076 41.1494H80V62ZM85.9343 51.5148V46.0046H88.7487C90.8595 46.0046 92.175 46.9278 92.175 48.7149V48.7748C92.175 50.4427 90.8595 51.5148 88.7792 51.5148H85.9343ZM105.94 62H112.151L113.68 58.2467H121.97L123.499 62H129.863L120.746 41H115.026L105.94 62ZM115.424 53.7492L117.841 47.8511L120.227 53.7492H115.424ZM141.272 62H147.207V41.1494H141.272V62ZM160.3 62H166.234V55.6853H168.865L173.179 62H180L174.891 54.7318C177.583 53.63 179.296 51.5148 179.296 48.2979V48.2385C179.296 46.2426 178.654 44.6044 177.4 43.3833C175.962 41.9831 173.729 41.1494 170.425 41.1494H160.3V62ZM166.234 51.1576V46.1233H170.15C172.107 46.1233 173.362 46.9575 173.362 48.6259V48.6853C173.362 50.2042 172.169 51.1576 170.181 51.1576H166.234Z" fill="#0B1A3C"/>
<path d="M80 25H83.8704V16.1065H94.9781V12.6114H83.8704V6.65112H96.394V3.15602H80V25ZM105.677 25H109.642L111.907 19.7265H122.322L124.557 25H128.647L118.955 3H115.368L105.677 25ZM113.323 16.3247L117.099 7.58722L120.906 16.3247H113.323ZM142.083 25H145.954V3.15602H142.083V25ZM161.277 25H165.148V17.3857H169.993L175.406 25H180L174.053 16.7306C177.105 15.8567 179.276 13.7035 179.276 10.1151V10.0524C179.276 8.14909 178.615 6.55781 177.451 5.34077C176.035 3.96772 173.864 3.15602 171.095 3.15602H161.277V25ZM165.148 13.9844V6.65112H170.78C173.675 6.65112 175.343 7.89926 175.343 10.2711V10.3333C175.343 12.5803 173.581 13.9844 170.812 13.9844H165.148Z" fill="#0B1A3C"/>
<path d="M188 63H193V58H188V63Z" fill="#87C9EA"/>
</svg>
