<svg width="48" height="48" viewBox="0 0 48 48" fill="none" xmlns="http://www.w3.org/2000/svg">
<rect width="48" height="48" rx="24" fill="#228429" fill-opacity="0.08"/>
<path d="M26.5998 20.0003H33C34.1046 20.0003 35 20.8958 35 22.0003V24.1047C35 24.3659 34.9488 24.6246 34.8494 24.8662L31.755 32.3811C31.6007 32.7558 31.2355 33.0003 30.8303 33.0003H14C13.4477 33.0003 13 32.5526 13 32.0003V22.0003C13 21.448 13.4477 21.0003 14 21.0003H17.4818C17.8068 21.0003 18.1114 20.8425 18.2988 20.577L23.7522 12.8514C23.8947 12.6495 24.1633 12.582 24.3843 12.6925L26.1984 13.5995C27.25 14.1253 27.7931 15.3129 27.5031 16.4524L26.5998 20.0003ZM19 22.5878V31.0003H30.1606L33 24.1047V22.0003H26.5998C25.2951 22.0003 24.3398 20.7713 24.6616 19.5069L25.5649 15.9589C25.6229 15.7311 25.5143 15.4935 25.3039 15.3884L24.6428 15.0578L19.9328 21.7304C19.6829 22.0844 19.3634 22.3746 19 22.5878ZM17 23.0003H15V31.0003H17V23.0003Z" fill="#228429"/>
</svg>
