<svg width="48" height="48" viewBox="0 0 48 48" fill="none" xmlns="http://www.w3.org/2000/svg">
<rect width="48" height="48" rx="24" fill="#228429" fill-opacity="0.08"/>
<path d="M18 16H16V14H32V16H30V18C30 19.6154 29.1838 20.9147 28.1561 21.9767C27.4532 22.703 26.598 23.372 25.7309 24C26.598 24.628 27.4532 25.297 28.1561 26.0233C29.1838 27.0853 30 28.3846 30 30V32H32V34H16V32H18V30C18 28.3846 18.8162 27.0853 19.8439 26.0233C20.5468 25.297 21.402 24.628 22.2691 24C21.402 23.372 20.5468 22.703 19.8439 21.9767C18.8162 20.9147 18 19.6154 18 18V16ZM20 16V18C20 18.8846 20.4338 19.7103 21.2811 20.5858C22.008 21.337 22.9548 22.0398 24 22.7781C25.0452 22.0398 25.992 21.337 26.7189 20.5858C27.5662 19.7103 28 18.8846 28 18V16H20ZM24 25.2219C22.9548 25.9602 22.008 26.663 21.2811 27.4142C20.4338 28.2897 20 29.1154 20 30V32H28V30C28 29.1154 27.5662 28.2897 26.7189 27.4142C25.992 26.663 25.0452 25.9602 24 25.2219Z" fill="#228429"/>
</svg>
