<svg width="1440" height="1145" viewBox="0 0 1440 1145" fill="none" xmlns="http://www.w3.org/2000/svg">
<g clip-path="url(#clip0_6741_1196)">
<rect width="1440" height="1145" fill="#FFFDF0"/>
<path d="M276.072 505C279.151 499.667 286.849 499.667 289.928 505L345.354 601C348.433 606.333 344.584 613 338.426 613H227.574C221.416 613 217.567 606.333 220.646 601L276.072 505Z" fill="#FDDA14"/>
<circle cx="1155" cy="243" r="95" fill="#FDDA14"/>
<circle cx="280" cy="886" r="40" fill="#3E35DF"/>
<circle cx="35" cy="17" r="4" fill="#FDDA14"/>
<circle cx="59" cy="17" r="4" fill="#FDDA14"/>
<circle cx="83" cy="17" r="4" fill="#FDDA14"/>
<circle cx="107" cy="17" r="4" fill="#FDDA14"/>
<circle cx="131" cy="17" r="4" fill="#FDDA14"/>
<circle cx="155" cy="17" r="4" fill="#FDDA14"/>
<circle cx="179" cy="17" r="4" fill="#FDDA14"/>
<circle cx="35" cy="41" r="4" fill="#FDDA14"/>
<circle cx="59" cy="41" r="4" fill="#FDDA14"/>
<circle cx="83" cy="41" r="4" fill="#FDDA14"/>
<circle cx="107" cy="41" r="4" fill="#FDDA14"/>
<circle cx="131" cy="41" r="4" fill="#FDDA14"/>
<circle cx="155" cy="41" r="4" fill="#FDDA14"/>
<circle cx="179" cy="41" r="4" fill="#FDDA14"/>
<circle cx="35" cy="65" r="4" fill="#FDDA14"/>
<circle cx="59" cy="65" r="4" fill="#FDDA14"/>
<circle cx="83" cy="65" r="4" fill="#FDDA14"/>
<circle cx="107" cy="65" r="4" fill="#FDDA14"/>
<circle cx="131" cy="65" r="4" fill="#FDDA14"/>
<circle cx="155" cy="65" r="4" fill="#FDDA14"/>
<circle cx="179" cy="65" r="4" fill="#FDDA14"/>
<circle cx="35" cy="89" r="4" fill="#FDDA14"/>
<circle cx="59" cy="89" r="4" fill="#FDDA14"/>
<circle cx="83" cy="89" r="4" fill="#FDDA14"/>
<circle cx="107" cy="89" r="4" fill="#FDDA14"/>
<circle cx="131" cy="89" r="4" fill="#FDDA14"/>
<circle cx="155" cy="89" r="4" fill="#FDDA14"/>
<circle cx="179" cy="89" r="4" fill="#FDDA14"/>
<circle cx="1084" cy="827" r="4" fill="#FDDA14"/>
<circle cx="1108" cy="827" r="4" fill="#FDDA14"/>
<circle cx="1132" cy="827" r="4" fill="#FDDA14"/>
<circle cx="1156" cy="827" r="4" fill="#FDDA14"/>
<circle cx="1180" cy="827" r="4" fill="#FDDA14"/>
<circle cx="1204" cy="827" r="4" fill="#FDDA14"/>
<circle cx="1228" cy="827" r="4" fill="#FDDA14"/>
<circle cx="1084" cy="851" r="4" fill="#FDDA14"/>
<circle cx="1108" cy="851" r="4" fill="#FDDA14"/>
<circle cx="1132" cy="851" r="4" fill="#FDDA14"/>
<circle cx="1156" cy="851" r="4" fill="#FDDA14"/>
<circle cx="1180" cy="851" r="4" fill="#FDDA14"/>
<circle cx="1204" cy="851" r="4" fill="#FDDA14"/>
<circle cx="1228" cy="851" r="4" fill="#FDDA14"/>
<circle cx="1084" cy="875" r="4" fill="#FDDA14"/>
<circle cx="1108" cy="875" r="4" fill="#FDDA14"/>
<circle cx="1132" cy="875" r="4" fill="#FDDA14"/>
<circle cx="1156" cy="875" r="4" fill="#FDDA14"/>
<circle cx="1180" cy="875" r="4" fill="#FDDA14"/>
<circle cx="1204" cy="875" r="4" fill="#FDDA14"/>
<circle cx="1228" cy="875" r="4" fill="#FDDA14"/>
<circle cx="1084" cy="899" r="4" fill="#FDDA14"/>
<circle cx="1108" cy="899" r="4" fill="#FDDA14"/>
<circle cx="1132" cy="899" r="4" fill="#FDDA14"/>
<circle cx="1156" cy="899" r="4" fill="#FDDA14"/>
<circle cx="1180" cy="899" r="4" fill="#FDDA14"/>
<circle cx="1204" cy="899" r="4" fill="#FDDA14"/>
<circle cx="1228" cy="899" r="4" fill="#FDDA14"/>
<circle cx="1084" cy="923" r="4" fill="#FDDA14"/>
<circle cx="1108" cy="923" r="4" fill="#FDDA14"/>
<circle cx="1132" cy="923" r="4" fill="#FDDA14"/>
<circle cx="1156" cy="923" r="4" fill="#FDDA14"/>
<circle cx="1180" cy="923" r="4" fill="#FDDA14"/>
<circle cx="1204" cy="923" r="4" fill="#FDDA14"/>
<circle cx="1228" cy="923" r="4" fill="#FDDA14"/>
</g>
<defs>
<clipPath id="clip0_6741_1196">
<rect width="1440" height="1145" fill="white"/>
</clipPath>
</defs>
</svg>
