<svg width="24" height="25" viewBox="0 0 24 25" fill="none" xmlns="http://www.w3.org/2000/svg">
<path fill-rule="evenodd" clip-rule="evenodd" d="M5.25 9.803V8.5C5.25 6.70979 5.96116 4.9929 7.22703 3.72703C8.4929 2.46116 10.2098 1.75 12 1.75C13.7902 1.75 15.5071 2.46116 16.773 3.72703C18.0388 4.9929 18.75 6.70979 18.75 8.5V9.803C18.9767 9.81833 19.1907 9.83967 19.392 9.867C20.292 9.987 21.05 10.247 21.652 10.848C22.254 11.45 22.512 12.208 22.634 13.108C22.75 13.975 22.75 15.078 22.75 16.445V16.555C22.75 17.922 22.75 19.025 22.634 19.892C22.512 20.792 22.254 21.55 21.652 22.152C21.05 22.754 20.292 23.012 19.392 23.134C18.525 23.25 17.422 23.25 16.055 23.25H7.945C6.578 23.25 5.475 23.25 4.608 23.134C3.708 23.012 2.95 22.754 2.348 22.152C1.746 21.55 1.488 20.792 1.367 19.892C1.25 19.025 1.25 17.922 1.25 16.555V16.445C1.25 15.078 1.25 13.975 1.367 13.108C1.487 12.208 1.747 11.45 2.348 10.848C2.95 10.246 3.708 9.988 4.608 9.867C4.80867 9.83967 5.02267 9.81833 5.25 9.803ZM6.75 8.5C6.75 7.10761 7.30312 5.77226 8.28769 4.78769C9.27226 3.80312 10.6076 3.25 12 3.25C13.3924 3.25 14.7277 3.80312 15.7123 4.78769C16.6969 5.77226 17.25 7.10761 17.25 8.5V9.753C16.8767 9.75033 16.4783 9.74933 16.055 9.75H7.945C7.52233 9.75 7.124 9.751 6.75 9.753V8.5ZM3.409 11.909C3.686 11.632 4.074 11.452 4.809 11.353C5.563 11.252 6.565 11.25 8 11.25H16C17.435 11.25 18.436 11.252 19.192 11.353C19.926 11.452 20.314 11.633 20.591 11.909C20.868 12.186 21.048 12.574 21.147 13.309C21.248 14.064 21.25 15.065 21.25 16.5C21.25 17.935 21.248 18.936 21.147 19.692C21.048 20.426 20.867 20.814 20.591 21.091C20.314 21.368 19.926 21.548 19.191 21.647C18.436 21.748 17.435 21.75 16 21.75H8C6.565 21.75 5.563 21.748 4.808 21.647C4.074 21.548 3.686 21.367 3.409 21.091C3.132 20.814 2.952 20.426 2.853 19.691C2.752 18.936 2.75 17.935 2.75 16.5C2.75 15.065 2.752 14.063 2.853 13.308C2.952 12.574 3.133 12.186 3.409 11.909Z" fill="#1A1A1A" fill-opacity="0.48"/>
</svg>
