<svg width="20" height="20" viewBox="0 0 20 20" fill="none" xmlns="http://www.w3.org/2000/svg">
<path d="M10 20C4.47715 20 0 15.5228 0 10C0 4.47715 4.47715 0 10 0C15.5228 0 20 4.47715 20 10C20 15.5228 15.5228 20 10 20ZM10 18C14.4183 18 18 14.4183 18 10C18 5.58172 14.4183 2 10 2C5.58172 2 2 5.58172 2 10C2 14.4183 5.58172 18 10 18ZM6.52313 5.10891L14.8911 13.4769C14.6997 13.7454 14.4836 14.0017 14.2426 14.2426C14.0017 14.4836 13.7454 14.6997 13.4769 14.8911L5.10891 6.52313C5.30029 6.25459 5.51644 5.99828 5.75736 5.75736C5.99828 5.51644 6.25459 5.30029 6.52313 5.10891Z" fill="black"/>
</svg>
