<svg width="48" height="48" viewBox="0 0 48 48" fill="none" xmlns="http://www.w3.org/2000/svg">
<rect width="48" height="48" rx="24" fill="#228429" fill-opacity="0.08"/>
<path d="M23.8611 14.3906C24.8495 13.7316 26.1336 13.718 27.1358 14.3557L31.291 16.9999H32.9998C33.5521 16.9999 33.9998 17.4477 33.9998 17.9999V26.9999C33.9998 27.5522 33.5521 27.9999 32.9998 27.9999H31.4801C31.5396 28.9472 31.0933 29.9102 30.1955 30.4489L25.1021 33.505C24.4591 33.8907 23.6609 33.8817 23.0314 33.4974C22.3311 34.1167 21.2531 34.1849 20.471 33.5704L15.3303 29.5312C14.5639 28.9291 14.3701 27.9003 14.7658 27.0847C14.2825 26.7057 14 26.1254 14 25.5109V18C14 17.4477 14.4477 17 15 17H19.9469L23.8611 14.3906ZM16.1726 25.6452L16.8647 25.0397C18.0949 23.9632 19.9604 24.0698 21.06 25.2794L23.7622 28.2518C24.6317 29.2083 24.7903 30.6135 24.1579 31.739L29.1665 28.7339C29.4479 28.5651 29.5497 28.2276 29.4448 27.9433L25.0177 21.7455C24.769 21.3974 24.3264 21.246 23.9166 21.3689L21.4313 22.1145C20.3742 22.4316 19.2284 22.1427 18.448 21.3624L18.1552 21.0696C17.5872 20.5016 17.4403 19.6932 17.6793 19H16V25.5109L16.1726 25.6452ZM26.0621 16.0431C25.728 15.8305 25.3 15.835 24.9705 16.0547L19.5694 19.6554L19.8622 19.9481C20.1223 20.2083 20.5043 20.3046 20.8567 20.1989L23.3419 19.4533C24.5713 19.0845 25.8992 19.5386 26.6452 20.583L30.5144 25.9999H31.9998V18.9999H31.291C30.9106 18.9999 30.5381 18.8915 30.2172 18.6873L26.0621 16.0431ZM18.1817 26.5448L16.5659 27.9586L21.7067 31.9978L22.4106 30.7659C22.6256 30.3897 22.5738 29.9178 22.2823 29.5971L19.5801 26.6247C19.2136 26.2215 18.5918 26.186 18.1817 26.5448Z" fill="#228429"/>
</svg>
