<svg width="16" height="14" viewBox="0 0 16 14" fill="none" xmlns="http://www.w3.org/2000/svg">
<path d="M15.2381 2.33333H9.90477C7.38005 2.33333 5.33333 4.42267 5.33333 7C5.33333 9.57732 7.38005 11.6667 9.90477 11.6667H15.2381V13.2222C15.2381 13.6518 14.897 14 14.4762 14H0.761904C0.34112 14 0 13.6518 0 13.2222V0.777777C0 0.348219 0.34112 0 0.761904 0H14.4762C14.897 0 15.2381 0.348219 15.2381 0.777777V2.33333ZM9.90477 3.88889H16V10.1111H9.90477C8.22157 10.1111 6.85715 8.71819 6.85715 7C6.85715 5.28178 8.22157 3.88889 9.90477 3.88889ZM9.90477 6.22223V7.77778H12.1905V6.22223H9.90477Z" fill="#1A1A1A" fill-opacity="0.96"/>
</svg>
